<svg xmlns="http://www.w3.org/2000/svg" viewBox="0 0 1400 900" preserveAspectRatio="xMidYMid slice">
  <defs>
    <linearGradient id="skyP" x1="0" y1="0" x2="0" y2="1">
      <stop offset="0"   stop-color="#0a0805"/>
      <stop offset=".35" stop-color="#1a1208"/>
      <stop offset=".75" stop-color="#3d2812"/>
      <stop offset="1"   stop-color="#5a3a1c"/>
    </linearGradient>
    <linearGradient id="forestP" x1="0" y1="0" x2="0" y2="1">
      <stop offset="0" stop-color="#0c0a08"/>
      <stop offset="1" stop-color="#1a1410"/>
    </linearGradient>
    <linearGradient id="paveStripP" x1="0" y1="0" x2="0" y2="1">
      <stop offset="0"   stop-color="#3d2818"/>
      <stop offset=".5"  stop-color="#1f1610"/>
      <stop offset="1"   stop-color="#0e0a08"/>
    </linearGradient>
    <radialGradient id="vignetteP" cx=".5" cy=".55" r=".75">
      <stop offset=".5" stop-color="#000" stop-opacity="0"/>
      <stop offset="1"  stop-color="#000" stop-opacity=".7"/>
    </radialGradient>
    <radialGradient id="sunP" cx=".72" cy=".52" r=".18">
      <stop offset="0"   stop-color="#ffd6a3" stop-opacity=".55"/>
      <stop offset=".5"  stop-color="#cc7733" stop-opacity=".25"/>
      <stop offset="1"   stop-color="#ff5c00" stop-opacity="0"/>
    </radialGradient>
    <pattern id="cobbleP" x="0" y="0" width="60" height="38" patternUnits="userSpaceOnUse">
      <rect width="60" height="38" fill="#26201a"/>
      <rect x="1"  y="1"  width="27" height="17" rx="2" fill="#3a2f24"/>
      <rect x="32" y="1"  width="27" height="17" rx="2" fill="#332a1f"/>
      <rect x="16" y="20" width="27" height="17" rx="2" fill="#3d3127"/>
      <rect x="-12" y="20" width="27" height="17" rx="2" fill="#2e2620"/>
      <rect x="44" y="20" width="27" height="17" rx="2" fill="#36291f"/>
      <line x1="0" y1="19" x2="60" y2="19" stroke="#0a0806" stroke-width=".7"/>
      <line x1="0" y1="0"  x2="60" y2="0"  stroke="#0a0806" stroke-width=".5"/>
    </pattern>
    <filter id="grainP">
      <feTurbulence type="fractalNoise" baseFrequency=".9" numOctaves="2" seed="3"/>
      <feColorMatrix values="0 0 0 0 0  0 0 0 0 0  0 0 0 0 0  0 0 0 .14 0"/>
    </filter>
  </defs>

  <rect width="1400" height="900" fill="#080604"/>
  <rect width="1400" height="560" fill="url(#skyP)"/>
  <rect width="1400" height="560" fill="url(#sunP)"/>

  <!-- Distant tree silhouette layer 1 -->
  <path d="M0 510 Q 80 488 140 502 T 270 495 Q 320 482 380 498 T 510 488 Q 580 478 640 492 T 780 488 Q 850 474 920 490 T 1060 484 Q 1130 470 1200 488 T 1340 484 L 1400 488 L 1400 560 L 0 560 Z" fill="url(#forestP)"/>

  <!-- Closer trees, deeper black -->
  <path d="M0 540 Q 60 522 120 534 T 240 528 Q 300 518 360 532 T 480 526 Q 560 514 620 530 T 740 524 Q 820 512 880 528 T 1000 522 Q 1080 510 1140 526 T 1260 522 Q 1330 514 1400 524 L 1400 600 L 0 600 Z" fill="#080604"/>

  <!-- Cobblestone road in perspective -->
  <path d="M530 560 L870 560 L1200 900 L200 900 Z" fill="url(#cobbleP)"/>
  <path d="M530 560 L870 560 L1200 900 L200 900 Z" fill="url(#paveStripP)" opacity=".55"/>

  <line x1="530" y1="560" x2="200"  y2="900" stroke="#7a5a36" stroke-width="2"   opacity=".55"/>
  <line x1="870" y1="560" x2="1200" y2="900" stroke="#7a5a36" stroke-width="2"   opacity=".55"/>
  <line x1="530" y1="563" x2="200"  y2="903" stroke="#1a0e08" stroke-width="3.5" opacity=".7"/>
  <line x1="870" y1="563" x2="1200" y2="903" stroke="#1a0e08" stroke-width="3.5" opacity=".7"/>
  <line x1="700" y1="560" x2="700" y2="900" stroke="#ffb068" stroke-width="1.5" opacity=".22"/>

  <g transform="translate(80, 800)" font-family="Georgia, serif" fill="#7a5a36" opacity=".5">
    <text font-size="13" letter-spacing="6">— PAVÉ —</text>
  </g>

  <rect width="1400" height="900" fill="url(#vignetteP)"/>
  <rect width="1400" height="900" filter="url(#grainP)" opacity=".5"/>
</svg>
