<svg xmlns="http://www.w3.org/2000/svg" viewBox="0 0 1400 900" preserveAspectRatio="xMidYMid slice">
  <defs>
    <linearGradient id="skyR" x1="0" y1="0" x2="0" y2="1">
      <stop offset="0"   stop-color="#0a0a0a"/>
      <stop offset=".25" stop-color="#1a1612"/>
      <stop offset=".55" stop-color="#3a2820"/>
      <stop offset="1"   stop-color="#7a4828"/>
    </linearGradient>
    <linearGradient id="fieldFarR" x1="0" y1="0" x2="0" y2="1">
      <stop offset="0" stop-color="#2a2018"/>
      <stop offset="1" stop-color="#1a1410"/>
    </linearGradient>
    <linearGradient id="fieldNearR" x1="0" y1="0" x2="0" y2="1">
      <stop offset="0" stop-color="#1a1410"/>
      <stop offset="1" stop-color="#0a0806"/>
    </linearGradient>
    <linearGradient id="roadR" x1="0" y1="0" x2="0" y2="1">
      <stop offset="0"   stop-color="#3a3228"/>
      <stop offset=".5"  stop-color="#241e18"/>
      <stop offset="1"   stop-color="#0a0806"/>
    </linearGradient>
    <radialGradient id="sunR" cx=".5" cy=".55" r=".15">
      <stop offset="0"   stop-color="#ffd6a3" stop-opacity=".7"/>
      <stop offset=".4"  stop-color="#cc7733" stop-opacity=".3"/>
      <stop offset="1"   stop-color="#000" stop-opacity="0"/>
    </radialGradient>
    <radialGradient id="vignetteR" cx=".5" cy=".55" r=".8">
      <stop offset=".5" stop-color="#000" stop-opacity="0"/>
      <stop offset="1"  stop-color="#000" stop-opacity=".7"/>
    </radialGradient>
    <filter id="grainR">
      <feTurbulence type="fractalNoise" baseFrequency=".85" numOctaves="2" seed="17"/>
      <feColorMatrix values="0 0 0 0 0  0 0 0 0 0  0 0 0 0 0  0 0 0 .12 0"/>
    </filter>
  </defs>

  <rect width="1400" height="900" fill="url(#skyR)"/>
  <rect width="1400" height="900" fill="url(#sunR)"/>

  <!-- Far horizon hills -->
  <path d="M0 540 Q 200 522 380 530 T 680 528 Q 880 520 1080 528 T 1400 526 L 1400 580 L 0 580 Z" fill="url(#fieldFarR)" opacity=".7"/>

  <!-- Mid fields with subtle furrow texture -->
  <rect y="560" width="1400" height="120" fill="url(#fieldFarR)"/>

  <!-- Near fields -->
  <rect y="680" width="1400" height="220" fill="url(#fieldNearR)"/>

  <!-- Road slicing through, perspective -->
  <path d="M650 545 L750 545 L1100 900 L300 900 Z" fill="url(#roadR)"/>

  <!-- Road centerline dashes -->
  <g fill="#9a7048" opacity=".5">
    <rect x="697" y="595" width="6" height="12"/>
    <rect x="694" y="660" width="8" height="14"/>
    <rect x="690" y="730" width="11" height="17"/>
    <rect x="685" y="810" width="14" height="20"/>
  </g>

  <!-- Road edges -->
  <line x1="650" y1="545" x2="300"  y2="900" stroke="#0a0806" stroke-width="2" opacity=".7"/>
  <line x1="750" y1="545" x2="1100" y2="900" stroke="#0a0806" stroke-width="2" opacity=".7"/>

  <!-- Telephone poles -->
  <g fill="#241812" opacity=".75">
    <rect x="232" y="420" width="3" height="180"/>
    <rect x="412" y="450" width="3" height="135"/>
    <rect x="572" y="475" width="3" height="100"/>
    <rect x="1158" y="420" width="3" height="180"/>
    <rect x="978"  y="450" width="3" height="135"/>
    <rect x="828"  y="475" width="3" height="100"/>
  </g>
  <!-- Crossbeams -->
  <g stroke="#241812" stroke-width="1.5" opacity=".6">
    <line x1="225" y1="430" x2="241" y2="430"/>
    <line x1="408" y1="458" x2="419" y2="458"/>
    <line x1="569" y1="481" x2="578" y2="481"/>
    <line x1="1151" y1="430" x2="1167" y2="430"/>
    <line x1="974"  y1="458" x2="985"  y2="458"/>
    <line x1="825"  y1="481" x2="834"  y2="481"/>
  </g>
  <!-- Subtle wires -->
  <g stroke="#241812" stroke-width=".5" opacity=".4" fill="none">
    <path d="M232 432 Q 322 446 412 460"/>
    <path d="M412 460 Q 492 472 572 478"/>
    <path d="M828 478 Q 904 472 978 460"/>
    <path d="M978 460 Q 1068 446 1158 432"/>
  </g>

  <!-- Distant church steeple — flemish countryside marker -->
  <g transform="translate(295, 520)" fill="#1a1410" opacity=".85">
    <rect x="-4" y="0" width="8" height="20"/>
    <polygon points="-6,0 6,0 0,-20"/>
  </g>

  <!-- Editorial mark -->
  <g transform="translate(80, 820)" font-family="Georgia, serif" fill="#9a7048" opacity=".55">
    <text font-size="13" letter-spacing="6">— ROUTE —</text>
  </g>

  <rect width="1400" height="900" fill="url(#vignetteR)"/>
  <rect width="1400" height="900" filter="url(#grainR)" opacity=".5"/>
</svg>
